<svg width="64" height="65" viewBox="0 0 64 65" fill="none" xmlns="http://www.w3.org/2000/svg">
<path d="M41.0498 1.37891C43.6046 0.326265 46.5304 1.53841 47.5811 4.08691L47.583 4.09082L50.4951 11.0771C50.9972 12.2976 51.9801 13.2803 53.2012 13.7812V13.7803L60.1982 16.6797L60.1992 16.6807C62.7473 17.7311 63.9589 20.6555 62.9072 23.21L60.0068 30.21L60.0039 30.2178C59.507 31.4445 59.5055 32.8154 60.0059 34.0352L60.0068 34.0381L62.9062 41.0361V41.0371C63.9593 43.592 62.7479 46.5177 60.1992 47.5684L60.1982 47.5693L53.2012 50.4678C51.9797 50.9689 50.9961 51.9518 50.4941 53.1729L47.5947 60.1729L47.5938 60.1748C46.543 62.7235 43.6165 63.9341 41.0615 62.8809L34.0635 59.9814L34.0605 59.9805L33.8301 59.8926C32.6696 59.4826 31.3804 59.5119 30.2383 59.9805L30.2354 59.9814L23.2373 62.8809C20.6824 63.9341 17.7559 62.7235 16.7051 60.1748L16.7041 60.1729L13.8047 53.1729C13.3027 51.9518 12.3191 50.9689 11.0977 50.4678H11.0967L4.10059 47.5693L4.09961 47.5684L3.86426 47.4648C1.47706 46.3356 0.372419 43.5122 1.39258 41.0371L1.38672 41.0332L4.2793 34.0508L4.28125 34.0479C4.78094 32.8298 4.7808 31.4446 4.28125 30.2266L4.2793 30.2227L1.37891 23.2227C0.327112 20.6681 1.5388 17.7428 4.08691 16.6924H4.08887L11.0889 13.792L11.0879 13.791C12.308 13.2895 13.2895 12.308 13.791 11.0879L13.792 11.0889L16.6924 4.08887V4.08691C17.7428 1.5388 20.6681 0.327112 23.2227 1.37891V1.37988L30.2227 4.2793L30.2266 4.28125C31.4446 4.7808 32.8298 4.78094 34.0479 4.28125L34.0508 4.2793L41.0508 1.37988L41.0498 1.37891Z" fill="url(#paint0_radial_209_511)" stroke="#FFE588" stroke-width="2"/>
<path d="M47.3829 21.9732L31.5192 15.1311L25.46 19.1445L41.3205 25.9865L41.3268 43.3261L47.3892 39.3095L47.3829 21.9732Z" fill="#FFD451"/>
<path d="M38.0041 28.1247L22.1436 21.2826L16.0844 25.2991L31.9449 32.1412L31.9512 49.4807L38.0136 45.4642L38.0041 28.1247Z" fill="#FFD451"/>
<path d="M31.9479 32.1413L16.0842 25.2992L16.059 42.1699L31.9542 49.4776L31.9479 32.1413Z" fill="#E0B138"/>
<defs>
<radialGradient id="paint0_radial_209_511" cx="0" cy="0" r="1" gradientTransform="matrix(64.454 64.4289 -64.454 64.4289 -0.113854 -0.0779574)" gradientUnits="userSpaceOnUse">
<stop stop-color="white"/>
<stop offset="1" stop-color="#FFF3C6"/>
</radialGradient>
</defs>
</svg>
