<svg width="16" height="16" viewBox="0 0 16 16" fill="none" xmlns="http://www.w3.org/2000/svg">
<path d="M8 16C10.1217 16 12.1566 15.1571 13.6569 13.6569C15.1571 12.1566 16 10.1217 16 8C16 5.87827 15.1571 3.84344 13.6569 2.34315C12.1566 0.842855 10.1217 0 8 0C5.87827 0 3.84344 0.842855 2.34315 2.34315C0.842855 3.84344 0 5.87827 0 8C0 10.1217 0.842855 12.1566 2.34315 13.6569C3.84344 15.1571 5.87827 16 8 16ZM8 3.25C8.41562 3.25 8.75 3.58437 8.75 4V4.5H9.25C9.66562 4.5 10 4.83437 10 5.25C10 5.66563 9.66562 6 9.25 6H7.325C7.00625 6 6.75 6.25625 6.75 6.575C6.75 6.8625 6.9625 7.10625 7.25 7.14375L8.95 7.36875C9.98125 7.50625 10.7531 8.38438 10.7531 9.425C10.7531 10.5469 9.86563 11.4594 8.75313 11.4969V11.9969C8.75313 12.4125 8.41875 12.7469 8.00313 12.7469C7.5875 12.7469 7.25313 12.4125 7.25313 11.9969V11.4969H6.25313C5.8375 11.4969 5.50313 11.1625 5.50313 10.7469C5.50313 10.3313 5.8375 9.99687 6.25313 9.99687H8.67813C8.99688 9.99687 9.25313 9.74063 9.25313 9.42188C9.25313 9.13437 9.04063 8.89062 8.75313 8.85312L7.05312 8.62813C6.02187 8.49063 5.25 7.6125 5.25 6.57188C5.25 5.45 6.1375 4.5375 7.25 4.5V4C7.25 3.58437 7.58437 3.25 8 3.25Z" fill="#3290A2"/>
</svg>
