<svg preserveAspectRatio="none" width="100%" height="100%" overflow="visible" style="display: block;" viewBox="0 0 15 15" fill="none" xmlns="http://www.w3.org/2000/svg">
<g id="circle-info">
<path id="Primary" d="M7.5 2.625C8.79293 2.625 10.0329 3.13861 10.9471 4.05285C11.8614 4.96709 12.375 6.20707 12.375 7.5C12.375 8.79293 11.8614 10.0329 10.9471 10.9471C10.0329 11.8614 8.79293 12.375 7.5 12.375C6.20707 12.375 4.96709 11.8614 4.05285 10.9471C3.13861 10.0329 2.625 8.79293 2.625 7.5C2.625 6.20707 3.13861 4.96709 4.05285 4.05285C4.96709 3.13861 6.20707 2.625 7.5 2.625ZM7.5 13.5C9.0913 13.5 10.6174 12.8679 11.7426 11.7426C12.8679 10.6174 13.5 9.0913 13.5 7.5C13.5 5.9087 12.8679 4.38258 11.7426 3.25736C10.6174 2.13214 9.0913 1.5 7.5 1.5C5.9087 1.5 4.38258 2.13214 3.25736 3.25736C2.13214 4.38258 1.5 5.9087 1.5 7.5C1.5 9.0913 2.13214 10.6174 3.25736 11.7426C4.38258 12.8679 5.9087 13.5 7.5 13.5ZM6.5625 9.375C6.25078 9.375 6 9.62578 6 9.9375C6 10.2492 6.25078 10.5 6.5625 10.5H8.4375C8.74922 10.5 9 10.2492 9 9.9375C9 9.62578 8.74922 9.375 8.4375 9.375H8.25V7.3125C8.25 7.00078 7.99922 6.75 7.6875 6.75H6.5625C6.25078 6.75 6 7.00078 6 7.3125C6 7.62422 6.25078 7.875 6.5625 7.875H7.125V9.375H6.5625ZM7.5 6C7.69891 6 7.88968 5.92098 8.03033 5.78033C8.17098 5.63968 8.25 5.44891 8.25 5.25C8.25 5.05109 8.17098 4.86032 8.03033 4.71967C7.88968 4.57902 7.69891 4.5 7.5 4.5C7.30109 4.5 7.11032 4.57902 6.96967 4.71967C6.82902 4.86032 6.75 5.05109 6.75 5.25C6.75 5.44891 6.82902 5.63968 6.96967 5.78033C7.11032 5.92098 7.30109 6 7.5 6Z" fill="var(--fill-0, #3290A2)"/>
</g>
</svg>
