<svg width="24" height="24" viewBox="0 0 24 24" fill="none" xmlns="http://www.w3.org/2000/svg">
<path d="M20.25 18V19.5C20.25 19.9125 19.9125 20.25 19.5 20.25C19.0875 20.25 18.75 19.9125 18.75 19.5V18H17.25V19.5C17.25 19.9125 16.9125 20.25 16.5 20.25C16.0875 20.25 15.75 19.9125 15.75 19.5V18H11.25V19.5C11.25 19.9125 10.9125 20.25 10.5 20.25C10.0875 20.25 9.75 19.9125 9.75 19.5V18H8.25V19.5C8.25 19.9125 7.9125 20.25 7.5 20.25C7.0875 20.25 6.75 19.9125 6.75 19.5V18H5.25V19.5C5.25 19.9125 4.9125 20.25 4.5 20.25C4.0875 20.25 3.75 19.9125 3.75 19.5V18H2.25V21C2.25 21.4125 2.5875 21.75 3 21.75H21C21.4125 21.75 21.75 21.4125 21.75 21V18H20.25ZM2.25 15.75H21.75V15.3563C21.75 15.0703 21.5906 14.8125 21.3375 14.6859L18.6 13.3125C16.8516 12.4406 15.75 10.6594 15.75 8.70469C15.75 5.14219 12.8578 2.25 9.29531 2.25H9C5.27344 2.25 2.25 5.27344 2.25 9V15.75ZM24 15.3563V21C24 22.6547 22.6547 24 21 24H3C1.34531 24 0 22.6547 0 21V9C0 4.03125 4.03125 0 9 0H9.29531C14.1047 0 18 3.9 18 8.70469C18 9.80625 18.6188 10.8094 19.6031 11.3016L22.3406 12.6703C23.3578 13.1766 24 14.2172 24 15.3516V15.3563Z" fill="#3799A3"/>
</svg>
