<svg width="30" height="30" viewBox="0 0 30 30" fill="none" xmlns="http://www.w3.org/2000/svg">
<path d="M4.5 1.5C4.84472 1.5 5.18606 1.5679 5.50454 1.69982C5.82302 1.83173 6.1124 2.02509 6.35616 2.26884C6.59991 2.5126 6.79326 2.80198 6.92518 3.12046C7.0571 3.43894 7.125 3.78028 7.125 4.125C7.125 4.46972 7.0571 4.81106 6.92518 5.12954C6.79326 5.44802 6.59991 5.7374 6.35616 5.98116C6.1124 6.22491 5.82302 6.41826 5.50454 6.55018C5.18606 6.6821 4.84472 6.75 4.5 6.75C4.15528 6.75 3.81394 6.6821 3.49546 6.55018C3.17698 6.41826 2.8876 6.22491 2.64384 5.98116C2.40009 5.7374 2.20673 5.44802 2.07482 5.12954C1.9429 4.81106 1.875 4.46972 1.875 4.125C1.875 3.78028 1.9429 3.43894 2.07482 3.12046C2.20673 2.80198 2.40009 2.5126 2.64384 2.26884C2.8876 2.02509 3.17698 1.83173 3.49546 1.69982C3.81394 1.5679 4.15528 1.5 4.5 1.5ZM1.5 11.2687C1.5 9.6 2.85 8.25 4.51875 8.25C5.61094 8.25 6.61406 8.83594 7.14844 9.7875L9.12188 13.2938C9.4125 13.8094 9.92344 14.1516 10.5 14.2313V9C10.5 8.17031 11.1703 7.5 12 7.5H18C18.8297 7.5 19.5 8.17031 19.5 9V14.2313C20.0766 14.1516 20.5875 13.8094 20.8781 13.2938L22.8516 9.7875C23.3859 8.83594 24.3938 8.25 25.4813 8.25C27.15 8.25 28.5 9.6 28.5 11.2687V15.75C28.5 17.0484 27.8906 18.2719 26.85 19.05L23.25 21.75C22.7766 22.1063 22.5 22.6594 22.5 23.25V27.375C22.5 27.9984 21.9984 28.5 21.375 28.5C20.7516 28.5 20.25 27.9984 20.25 27.375V23.25C20.25 21.9516 20.8594 20.7281 21.9 19.95L22.5 19.5V14.9109C21.7266 15.9047 20.5266 16.5 19.2469 16.5H10.7578C9.47344 16.5 8.27813 15.9047 7.50469 14.9109V19.5L8.10469 19.95C9.14062 20.7281 9.75 21.9516 9.75 23.25V27.375C9.75 27.9984 9.24844 28.5 8.625 28.5C8.00156 28.5 7.5 27.9984 7.5 27.375V23.25C7.5 22.6594 7.22344 22.1063 6.75 21.75L3.15 19.05C2.10938 18.2719 1.5 17.0484 1.5 15.75V11.2687ZM1.5 20.325C1.66406 20.4891 1.8375 20.6437 2.01562 20.7891L3.75 22.1719V27.375C3.75 27.9984 3.24844 28.5 2.625 28.5C2.00156 28.5 1.5 27.9984 1.5 27.375V20.325ZM4.5 10.5C4.0875 10.5 3.75 10.8375 3.75 11.25V15.7219C3.75 16.2188 3.94688 16.6969 4.29844 17.0484L5.25 18V11.25C5.25 10.8375 4.9125 10.5 4.5 10.5ZM12.75 9.75V14.25H17.25V9.75H12.75ZM28.125 4.125C28.125 4.82119 27.8484 5.48887 27.3562 5.98116C26.8639 6.47344 26.1962 6.75 25.5 6.75C24.8038 6.75 24.1361 6.47344 23.6438 5.98116C23.1516 5.48887 22.875 4.82119 22.875 4.125C22.875 3.42881 23.1516 2.76113 23.6438 2.26884C24.1361 1.77656 24.8038 1.5 25.5 1.5C26.1962 1.5 26.8639 1.77656 27.3562 2.26884C27.8484 2.76113 28.125 3.42881 28.125 4.125ZM28.5 27.375C28.5 27.9984 27.9984 28.5 27.375 28.5C26.7516 28.5 26.25 27.9984 26.25 27.375V22.1719L27.9844 20.7844C28.1672 20.6391 28.3406 20.4844 28.5 20.3203V27.375ZM24.75 11.25V18L25.7016 17.0484C26.0531 16.6969 26.25 16.2188 26.25 15.7219V11.25C26.25 10.8375 25.9125 10.5 25.5 10.5C25.0875 10.5 24.75 10.8375 24.75 11.25Z" fill="#3799A3"/>
</svg>
