<svg width="30" height="30" viewBox="0 0 30 30" fill="none" xmlns="http://www.w3.org/2000/svg">
<path d="M6 6.75H19.5C19.9125 6.75 20.25 7.0875 20.25 7.5V19.6922C19.6125 20.2172 19.1344 20.9344 18.9047 21.75H14.0953C13.6078 20.0203 12.0141 18.75 10.125 18.75C8.23594 18.75 6.64688 20.0203 6.15469 21.75H6C5.5875 21.75 5.25 21.4125 5.25 21V17.25H6.375C6.99844 17.25 7.5 16.7484 7.5 16.125C7.5 15.5016 6.99844 15 6.375 15H1.125C0.501562 15 0 15.5016 0 16.125C0 16.7484 0.501562 17.25 1.125 17.25H3V21C3 22.6547 4.34531 24 6 24H6.15469C6.64219 25.7297 8.23594 27 10.125 27C12.0141 27 13.6031 25.7297 14.0953 24H18.9047C19.3922 25.7297 20.9859 27 22.875 27C24.7641 27 26.3531 25.7297 26.8453 24H27C28.6547 24 30 22.6547 30 21V13.9031C30 13.1063 29.6859 12.3422 29.1234 11.7797L27.2203 9.87656C26.6578 9.31406 25.8938 9 25.0969 9H22.5V7.5C22.5 5.84531 21.1547 4.5 19.5 4.5H6C4.34531 4.5 3 5.84531 3 7.5V8.25H5.25V7.5C5.25 7.0875 5.5875 6.75 6 6.75ZM22.5 15V11.25H25.0969C25.2938 11.25 25.4859 11.3297 25.6266 11.4703L27.5297 13.3734C27.6703 13.5141 27.75 13.7063 27.75 13.9031V15H22.5ZM22.5 17.25H27.75V21C27.75 21.4125 27.4125 21.75 27 21.75H26.8453C26.3578 20.0203 24.7641 18.75 22.875 18.75C22.7484 18.75 22.6219 18.7547 22.5 18.7687V17.25ZM3 10.5H1.125C0.501562 10.5 0 11.0016 0 11.625C0 12.2484 0.501562 12.75 1.125 12.75H9.375C9.99844 12.75 10.5 12.2484 10.5 11.625C10.5 11.0016 9.99844 10.5 9.375 10.5H3ZM10.125 21C10.6223 21 11.0992 21.1975 11.4508 21.5492C11.8025 21.9008 12 22.3777 12 22.875C12 23.3723 11.8025 23.8492 11.4508 24.2008C11.0992 24.5525 10.6223 24.75 10.125 24.75C9.62772 24.75 9.15081 24.5525 8.79918 24.2008C8.44754 23.8492 8.25 23.3723 8.25 22.875C8.25 22.3777 8.44754 21.9008 8.79918 21.5492C9.15081 21.1975 9.62772 21 10.125 21ZM22.875 21C23.3723 21 23.8492 21.1975 24.2008 21.5492C24.5525 21.9008 24.75 22.3777 24.75 22.875C24.75 23.3723 24.5525 23.8492 24.2008 24.2008C23.8492 24.5525 23.3723 24.75 22.875 24.75C22.3777 24.75 21.9008 24.5525 21.5492 24.2008C21.1975 23.8492 21 23.3723 21 22.875C21 22.3777 21.1975 21.9008 21.5492 21.5492C21.9008 21.1975 22.3777 21 22.875 21Z" fill="#3799A3"/>
</svg>
