<svg preserveAspectRatio="none" width="100%" height="100%" overflow="visible" style="display: block;" viewBox="0 0 20 20" fill="none" xmlns="http://www.w3.org/2000/svg">
<g id="person-dolly">
<path id="Primary" d="M4 1C4.22981 1 4.45738 1.04527 4.6697 1.13321C4.88202 1.22116 5.07493 1.35006 5.23744 1.51256C5.39994 1.67507 5.52884 1.86798 5.61679 2.0803C5.70473 2.29262 5.75 2.52019 5.75 2.75C5.75 2.97981 5.70473 3.20738 5.61679 3.4197C5.52884 3.63202 5.39994 3.82493 5.23744 3.98744C5.07493 4.14994 4.88202 4.27884 4.6697 4.36679C4.45738 4.45473 4.22981 4.5 4 4.5C3.77019 4.5 3.54262 4.45473 3.3303 4.36679C3.11798 4.27884 2.92507 4.14994 2.76256 3.98744C2.60006 3.82493 2.47116 3.63202 2.38321 3.4197C2.29527 3.20738 2.25 2.97981 2.25 2.75C2.25 2.52019 2.29527 2.29262 2.38321 2.0803C2.47116 1.86798 2.60006 1.67507 2.76256 1.51256C2.92507 1.35006 3.11798 1.22116 3.3303 1.13321C3.54262 1.04527 3.77019 1 4 1ZM2 7.34688C2 6.32813 2.82812 5.5 3.84687 5.5C4.58125 5.5 5.26875 5.85312 5.69375 6.45L7.21562 8.58125C7.40312 8.84375 7.70625 9 8.02812 9H10V7.75C10 7.33437 10.3344 7 10.75 7C11.1656 7 11.5 7.33437 11.5 7.75V16.5H17.25C17.6656 16.5 18 16.8344 18 17.25C18 17.6656 17.6656 18 17.25 18H11.9156C11.7094 18.5813 11.1531 19 10.5 19C9.67188 19 9 18.3281 9 17.5C9 16.8469 9.41875 16.2906 10 16.0844V11H8.02812C7.05937 11 6.15 10.5312 5.5875 9.74375L5.5 9.62187V12.125L6.8 13.1C7.55625 13.6656 8 14.5562 8 15.5V18C8 18.5531 7.55313 19 7 19C6.44687 19 6 18.5531 6 18V15.5C6 15.1844 5.85312 14.8875 5.6 14.7L3.2 12.9C2.44375 12.3344 2 11.4438 2 10.5V7.34688ZM2 13.8531C2.09687 13.9375 2.19688 14.0219 2.3 14.1L4 15.375V18C4 18.5531 3.55313 19 3 19C2.44687 19 2 18.5531 2 18V13.8531ZM14 10H17C17.5531 10 18 10.4469 18 11V14C18 14.5531 17.5531 15 17 15H14C13.4469 15 13 14.5531 13 14V11C13 10.4469 13.4469 10 14 10Z" fill="var(--fill-0, #677890)"/>
</g>
</svg>
