<svg width="14" height="15" viewBox="0 0 14 15" fill="none" xmlns="http://www.w3.org/2000/svg">
<path d="M6.67717 0C6.80515 0 6.93312 0.0278215 7.04719 0.0806823L12.2888 2.30362C12.9008 2.56236 13.3571 3.16608 13.3543 3.89501C13.3404 6.6549 12.2053 11.7045 7.40887 13.9998C6.94425 14.2223 6.40452 14.2223 5.94268 13.9998C1.14626 11.7045 0.0139234 6.65768 1.26546e-05 3.89501C-0.00276949 3.16608 0.453503 2.56236 1.06558 2.30362L6.30436 0.0806823C6.41843 0.0278215 6.54641 0 6.67717 0ZM9.20614 4.57942C8.90845 4.36241 8.49113 4.42918 8.27412 4.72687L5.8926 8.00146L5.15533 7.23915C4.89937 6.97485 4.47649 6.9665 4.21218 7.22246C3.94788 7.47841 3.93953 7.9013 4.19549 8.1656L5.48641 9.50104C5.62273 9.64293 5.8147 9.71804 6.01223 9.70413C6.20977 9.69022 6.39061 9.59007 6.50746 9.43148L9.35359 5.51144C9.5706 5.21375 9.50383 4.79642 9.20614 4.57942Z" fill="#3290A2"/>
</svg>
