<svg width="20" height="20" viewBox="0 0 20 20" fill="none" xmlns="http://www.w3.org/2000/svg">
<path opacity="0.4" d="M4.00001 6.36558C4.01564 9.22183 5.20001 14.1562 9.82501 16.3687C9.93751 16.4218 10.0688 16.4218 10.1781 16.3687C14.8031 14.1562 15.9875 9.22183 16 6.36558C16 6.20933 15.9031 6.04683 15.7188 5.9687L10 3.5437L4.28126 5.9687C4.09689 6.04683 3.99689 6.20933 4.00001 6.36558ZM7.21251 10.9218C6.92501 10.625 6.93126 10.15 7.23126 9.86245C7.52813 9.57495 8.00314 9.58433 8.29064 9.8812L9.11876 10.7375L11.7938 7.05933C12.0375 6.72495 12.5063 6.64995 12.8406 6.8937C13.175 7.13745 13.25 7.6062 13.0063 7.94058L9.80626 12.3406C9.67501 12.5187 9.47189 12.6312 9.25001 12.6468C9.02813 12.6625 8.81251 12.5781 8.65939 12.4187L7.20938 10.9187L7.21251 10.9218Z" fill="#8AD1D6"/>
<path d="M10.0031 2C10.1469 2 10.2906 2.03125 10.4188 2.09063L16.3063 4.5875C16.9938 4.87813 17.5063 5.55625 17.5031 6.375C17.4875 9.475 16.2125 15.1469 10.8281 17.725C10.3063 17.975 9.70001 17.975 9.17814 17.725C3.79064 15.1469 2.51564 9.47813 2.50001 6.375C2.49689 5.55625 3.00939 4.87813 3.69689 4.5875L9.58439 2.09063C9.71251 2.03125 9.85626 2 10.0031 2ZM4.28439 5.96875C4.10001 6.04688 4.00001 6.20937 4.00314 6.36562C4.01876 9.22188 5.20314 14.1562 9.82814 16.3687C9.94064 16.4219 10.0719 16.4219 10.1813 16.3687C14.8063 14.1562 15.9906 9.22188 16.0031 6.36562C16.0031 6.20937 15.9063 6.04688 15.7219 5.96875L10.0031 3.54375L4.28439 5.96875ZM11.7938 7.05937C12.0375 6.725 12.5063 6.65 12.8406 6.89375C13.175 7.1375 13.25 7.60625 13.0063 7.94063L9.80626 12.3406C9.67501 12.5188 9.47189 12.6313 9.25001 12.6469C9.02814 12.6625 8.81251 12.5781 8.65939 12.4187L7.20939 10.9187C6.92189 10.6219 6.92814 10.1469 7.22814 9.85938C7.52501 9.57188 8.00001 9.58125 8.28751 9.87813L9.11564 10.7344L11.7906 7.05625L11.7938 7.05937Z" fill="#8AD1D6"/>
</svg>
