<svg width="20" height="20" viewBox="0 0 20 20" fill="none" xmlns="http://www.w3.org/2000/svg">
<path opacity="0.4" d="M3.72498 7.9594L6.53123 10.7688C6.69998 10.9375 6.7781 11.1781 6.7406 11.4156L6.12185 15.3375L9.66248 13.5375C9.87498 13.4282 10.1281 13.4282 10.3437 13.5375L13.8843 15.3375L13.2656 11.4156C13.2281 11.1781 13.3062 10.9375 13.475 10.7688L16.2812 7.9594L12.3594 7.3344C12.1219 7.2969 11.9187 7.1469 11.8094 6.9344L10.0031 3.40002L8.19685 6.93752C8.08748 7.15002 7.88435 7.30002 7.64685 7.33752L3.72498 7.96252V7.9594Z" fill="#8AD1D6"/>
<path d="M10.0031 1C10.2844 1 10.5438 1.15938 10.6719 1.40938L12.9688 5.91563L17.9656 6.70937C18.2438 6.75312 18.475 6.95 18.5625 7.21875C18.65 7.4875 18.5781 7.78125 18.3813 7.98125L14.8031 11.5594L15.5938 16.5562C15.6375 16.8344 15.5219 17.1156 15.2938 17.2812C15.0656 17.4469 14.7625 17.4719 14.5125 17.3438L10.0031 15.05L5.49375 17.3438C5.24375 17.4719 4.94063 17.4469 4.7125 17.2812C4.48438 17.1156 4.36875 16.8375 4.4125 16.5562L5.2 11.5594L1.625 7.98125C1.425 7.78125 1.35625 7.4875 1.44375 7.21875C1.53125 6.95 1.75938 6.75312 2.04063 6.70937L7.0375 5.91563L9.3375 1.40938C9.46563 1.15938 9.725 1 10.0063 1H10.0031ZM10.0031 3.4L8.19688 6.9375C8.0875 7.15 7.88438 7.3 7.64688 7.3375L3.725 7.9625L6.53125 10.7719C6.7 10.9406 6.77813 11.1812 6.74063 11.4187L6.12188 15.3406L9.6625 13.5406C9.875 13.4312 10.1281 13.4312 10.3438 13.5406L13.8844 15.3406L13.2656 11.4187C13.2281 11.1812 13.3063 10.9406 13.475 10.7719L16.2813 7.9625L12.3594 7.3375C12.1219 7.3 11.9188 7.15 11.8094 6.9375L10.0031 3.4Z" fill="#8AD1D6"/>
</svg>
