<svg width="20" height="20" viewBox="0 0 20 20" fill="none" xmlns="http://www.w3.org/2000/svg">
<path opacity="0.4" d="M4.00311 4.75C4.00311 4.33437 4.33749 4 4.75311 4H9.63124C9.83124 4 10.0219 4.07812 10.1625 4.21875L16.6625 10.7188C16.8469 10.9031 16.9156 11.1594 16.8687 11.3969C16.8219 11.525 16.7469 11.6469 16.6437 11.75L14.1531 14.2875L11.7812 16.6594C11.4875 16.9531 11.0125 16.9531 10.7219 16.6594L4.22186 10.1594C4.08124 10.0188 4.00311 9.82812 4.00311 9.62813V4.75ZM5.50311 6.5C5.50311 6.76522 5.60847 7.01957 5.79601 7.20711C5.98354 7.39464 6.2379 7.5 6.50311 7.5C6.76833 7.5 7.02268 7.39464 7.21022 7.20711C7.39776 7.01957 7.50311 6.76522 7.50311 6.5C7.50311 6.23478 7.39776 5.98043 7.21022 5.79289C7.02268 5.60536 6.76833 5.5 6.50311 5.5C6.2379 5.5 5.98354 5.60536 5.79601 5.79289C5.60847 5.98043 5.50311 6.23478 5.50311 6.5Z" fill="#8AD1D6"/>
<path d="M4.00311 4.75C4.00311 4.33438 4.33749 4 4.75311 4H9.63124C9.83124 4 10.0219 4.07812 10.1625 4.21875L16.6625 10.7188C16.9562 11.0125 16.9562 11.4875 16.6625 11.7781L11.7844 16.6594C11.4906 16.9531 11.0156 16.9531 10.725 16.6594L4.22499 10.1594C4.08436 10.0188 4.00624 9.82812 4.00624 9.62813L4.00311 4.75ZM4.75311 2.5C3.50936 2.5 2.50311 3.50625 2.50311 4.75V9.62813C2.50311 10.225 2.74061 10.7969 3.16249 11.2188L9.66249 17.7188C10.5406 18.5969 11.9656 18.5969 12.8437 17.7188L17.7219 12.8406C18.6 11.9625 18.6 10.5375 17.7219 9.65938L11.2219 3.15937C10.8 2.7375 10.2281 2.5 9.63124 2.5H4.75311ZM6.50311 7.5C6.76833 7.5 7.02268 7.39464 7.21022 7.20711C7.39776 7.01957 7.50311 6.76522 7.50311 6.5C7.50311 6.23478 7.39776 5.98043 7.21022 5.79289C7.02268 5.60536 6.76833 5.5 6.50311 5.5C6.2379 5.5 5.98354 5.60536 5.79601 5.79289C5.60847 5.98043 5.50311 6.23478 5.50311 6.5C5.50311 6.76522 5.60847 7.01957 5.79601 7.20711C5.98354 7.39464 6.2379 7.5 6.50311 7.5Z" fill="#8AD1D6"/>
</svg>
