<svg preserveAspectRatio="none" width="100%" height="100%" overflow="visible" style="display: block;" viewBox="0 0 15 15" fill="none" xmlns="http://www.w3.org/2000/svg">
<g id="timer">
<path id="Primary" d="M7.5 1.5C7.08516 1.5 6.75 1.83516 6.75 2.25V3.75C6.75 4.16484 7.08516 4.5 7.5 4.5C7.91484 4.5 8.25 4.16484 8.25 3.75V3.06328C10.3781 3.41953 12 5.27109 12 7.5C12 9.98438 9.98438 12 7.5 12C5.01562 12 3 9.98438 3 7.5C3 6.24141 3.51562 5.10234 4.35 4.28672C4.64531 3.99609 4.65 3.52266 4.36172 3.225C4.07344 2.92734 3.59766 2.925 3.3 3.21328C2.19141 4.30312 1.5 5.82188 1.5 7.5C1.5 10.8141 4.18594 13.5 7.5 13.5C10.8141 13.5 13.5 10.8141 13.5 7.5C13.5 4.18594 10.8141 1.5 7.5 1.5ZM6.02344 5.22656C5.80313 5.00625 5.44688 5.00625 5.22891 5.22656C5.01094 5.44687 5.00859 5.80312 5.22891 6.02109L7.10391 7.89609C7.32422 8.11641 7.68047 8.11641 7.89844 7.89609C8.11641 7.67578 8.11875 7.31953 7.89844 7.10156L6.02344 5.22656Z" fill="var(--fill-0, #677890)"/>
</g>
</svg>
