<svg width="98" height="24" viewBox="0 0 98 24" fill="none" xmlns="http://www.w3.org/2000/svg">
<mask id="mask0_180_26250" style="mask-type:luminance" maskUnits="userSpaceOnUse" x="0" y="0" width="98" height="24">
<path d="M97.7143 0H0V24H97.7143V0Z" fill="white"/>
</mask>
<g mask="url(#mask0_180_26250)">
<path d="M25.6763 8.51062H35.5725V10.3546H31.6877V20.7376H29.5468V10.3546H25.6763V8.51062ZM35.1471 11.8865H36.9761V13.5886H37.0044C37.0611 13.3475 37.1746 13.1205 37.3447 12.8936C37.5148 12.6666 37.7133 12.4539 37.9402 12.2695C38.167 12.0851 38.4364 11.9291 38.72 11.8156C39.0035 11.7021 39.3013 11.6454 39.5848 11.6454C39.8117 11.6454 39.9676 11.6596 40.0527 11.6596C40.1378 11.6737 40.2228 11.6879 40.3221 11.6879V13.5745C40.1803 13.5461 40.0527 13.5319 39.8967 13.5177C39.755 13.5035 39.6132 13.4893 39.4714 13.4893C39.1453 13.4893 38.8334 13.5603 38.5356 13.6879C38.2379 13.8156 37.9969 14.0142 37.77 14.2695C37.5574 14.5248 37.3872 14.8369 37.2455 15.2198C37.1179 15.6028 37.0611 16.0284 37.0611 16.5248V20.7376H35.1188L35.1471 11.8865ZM49.2967 20.7376H47.3827V19.5035H47.3543C47.1133 19.9574 46.7589 20.312 46.291 20.5674C45.8231 20.8369 45.3269 20.9787 44.8448 20.9787C43.6822 20.9787 42.8316 20.695 42.3212 20.1135C41.8108 19.5319 41.5414 18.6666 41.5414 17.5035V11.8865H43.4838V17.3191C43.4838 18.0993 43.6255 18.6525 43.9374 18.9645C44.2352 19.2908 44.6463 19.4468 45.1851 19.4468C45.5963 19.4468 45.9365 19.3901 46.2059 19.2624C46.4753 19.1347 46.7021 18.9645 46.8723 18.7518C47.0424 18.539 47.17 18.2837 47.2409 17.9858C47.3118 17.6879 47.3543 17.3759 47.3543 17.0213V11.8865H49.2967V20.7376ZM52.6143 17.9007C52.671 18.4681 52.8837 18.8652 53.2665 19.1064C53.6493 19.3333 54.0888 19.4468 54.6134 19.4468C54.7977 19.4468 54.9962 19.4326 55.2373 19.4042C55.4641 19.3759 55.6909 19.3191 55.8894 19.234C56.1021 19.1631 56.2581 19.0354 56.3998 18.8794C56.5274 18.7234 56.5842 18.5248 56.5842 18.2695C56.57 18.0142 56.4849 17.8156 56.3148 17.6596C56.1446 17.4893 55.932 17.3759 55.6626 17.2766C55.3932 17.1773 55.0955 17.0922 54.7552 17.0213C54.4149 16.9503 54.0605 16.8794 53.706 16.7943C53.3374 16.7234 52.9971 16.6099 52.6569 16.4964C52.3166 16.383 52.0189 16.2269 51.7495 16.0284C51.4801 15.844 51.2674 15.5886 51.1115 15.2908C50.9413 14.9929 50.8704 14.6241 50.8704 14.1702C50.8704 13.6879 50.9981 13.2908 51.2249 12.9645C51.4517 12.6383 51.7637 12.383 52.1181 12.1844C52.4867 11.9858 52.8837 11.844 53.3232 11.7588C53.7627 11.6879 54.1881 11.6312 54.5851 11.6312C55.0388 11.6312 55.4783 11.6879 55.8894 11.773C56.3006 11.8723 56.6834 12.0284 57.0237 12.2411C57.3639 12.4539 57.6333 12.7376 57.8602 13.0922C58.087 13.4326 58.2288 13.8581 58.2855 14.3546H56.2155C56.1163 13.8865 55.9178 13.5745 55.5775 13.4184C55.2373 13.2482 54.8544 13.1773 54.4149 13.1773C54.2732 13.1773 54.1172 13.1915 53.9187 13.2057C53.7344 13.234 53.5501 13.2766 53.3799 13.3333C53.2098 13.3901 53.0822 13.4893 52.9546 13.6028C52.8412 13.7305 52.7845 13.8723 52.7845 14.0709C52.7845 14.312 52.8695 14.4964 53.0397 14.6525C53.2098 14.7943 53.4225 14.922 53.6919 15.0213C53.9612 15.1205 54.259 15.2057 54.5992 15.2766C54.9395 15.3475 55.294 15.4184 55.6626 15.5035C56.017 15.5744 56.3573 15.6879 56.7118 15.8014C57.052 15.9149 57.3639 16.0709 57.6191 16.2695C57.8885 16.4681 58.1012 16.7092 58.2713 17.0071C58.4415 17.3049 58.5265 17.6737 58.5265 18.0993C58.5265 18.6241 58.3989 19.0638 58.1579 19.4326C57.9169 19.8014 57.605 20.0993 57.2222 20.3262C56.8394 20.5532 56.414 20.7234 55.9462 20.8227C55.4783 20.922 55.0104 20.9787 54.5567 20.9787C53.9896 20.9787 53.4792 20.922 53.0113 20.7943C52.5434 20.6666 52.1181 20.4681 51.7778 20.2269C51.4376 19.9716 51.154 19.6454 50.9555 19.2624C50.757 18.8794 50.6578 18.4255 50.6294 17.9007H52.6002H52.6143ZM59.0511 11.8865H60.5256V9.21984H62.468V11.8723H64.2261V13.3333H62.468V18.0709C62.468 18.2837 62.4822 18.4539 62.4964 18.6099C62.5105 18.7518 62.5531 18.8794 62.624 18.9929C62.6807 19.0922 62.7799 19.1773 62.9075 19.2198C63.0351 19.2766 63.2052 19.2908 63.4179 19.2908C63.5597 19.2908 63.6873 19.2908 63.8291 19.2766C63.9709 19.2624 64.0985 19.2482 64.2402 19.2198V20.7234C64.0276 20.7518 63.8149 20.7659 63.6164 20.7943C63.4037 20.8227 63.2052 20.8227 62.9926 20.8227C62.4822 20.8227 62.0568 20.7659 61.7449 20.6808C61.433 20.5815 61.1778 20.4397 61.0077 20.2553C60.8234 20.0709 60.7099 19.8298 60.639 19.5461C60.5823 19.2624 60.5398 18.9362 60.5256 18.5674V13.3475H59.0511V11.8865ZM65.6155 11.8865H67.4586V13.0922H67.487C67.7564 12.5674 68.1392 12.2127 68.6354 11.9858C69.1316 11.7588 69.6562 11.6454 70.2375 11.6454C70.9322 11.6454 71.5419 11.773 72.0523 12.0142C72.5627 12.2553 73.0022 12.5957 73.3425 13.0213C73.6827 13.4468 73.9379 13.9574 74.1081 14.5248C74.2782 15.0922 74.3633 15.7021 74.3633 16.3546C74.3633 16.9503 74.2924 17.5319 74.1364 18.0851C73.9805 18.6525 73.7536 19.1347 73.4417 19.5745C73.1298 20 72.7328 20.3404 72.2508 20.5957C71.7687 20.851 71.2016 20.9787 70.5494 20.9787C70.2659 20.9787 69.9823 20.9503 69.6987 20.9078C69.4152 20.851 69.1316 20.7659 68.8764 20.6525C68.6212 20.539 68.366 20.3971 68.1534 20.2127C67.9265 20.0284 67.7422 19.8298 67.5862 19.5886H67.5579V24H65.6155V11.8865ZM72.4209 16.312C72.4209 15.9149 72.3642 15.5319 72.2649 15.1489C72.1657 14.7659 72.0098 14.4397 71.7971 14.1418C71.5844 13.844 71.3292 13.617 71.0315 13.4468C70.7196 13.2766 70.3651 13.1773 69.9681 13.1773C69.1458 13.1773 68.522 13.461 68.1108 14.0284C67.6997 14.5957 67.487 15.3617 67.487 16.312C67.487 16.7659 67.5437 17.1773 67.6571 17.5603C67.7705 17.9432 67.9265 18.2695 68.1534 18.539C68.366 18.8085 68.6212 19.0354 68.9331 19.1915C69.2309 19.3617 69.5853 19.4326 69.9823 19.4326C70.436 19.4326 70.8046 19.3333 71.1165 19.1631C71.4284 18.9787 71.6837 18.7376 71.8821 18.4539C72.0806 18.156 72.2224 17.8298 72.3075 17.461C72.3784 17.078 72.4209 16.7092 72.4209 16.312ZM75.8661 8.51062H77.8085V10.3546H75.8661V8.51062ZM75.8661 11.8865H77.8085V20.7376H75.8661V11.8865ZM79.5666 8.51062H81.509V20.7376H79.5666V8.51062ZM87.492 20.9787C86.7831 20.9787 86.1593 20.851 85.6064 20.6241C85.0534 20.3971 84.5856 20.0567 84.2028 19.6596C83.82 19.2482 83.5364 18.7518 83.3379 18.1844C83.1394 17.617 83.0402 16.9787 83.0402 16.2979C83.0402 15.6312 83.1394 15.0071 83.3379 14.4397C83.5364 13.8723 83.8341 13.3759 84.2028 12.9645C84.5856 12.5532 85.0534 12.2269 85.6064 12C86.1593 11.773 86.7831 11.6454 87.492 11.6454C88.2009 11.6454 88.8248 11.773 89.3777 12C89.9306 12.2269 90.3985 12.5674 90.7813 12.9645C91.1641 13.3759 91.4477 13.8723 91.6462 14.4397C91.8447 15.0071 91.9439 15.6312 91.9439 16.2979C91.9439 16.9787 91.8447 17.6028 91.6462 18.1844C91.4477 18.7518 91.1499 19.2482 90.7813 19.6596C90.3985 20.0709 89.9306 20.3971 89.3777 20.6241C88.8248 20.851 88.2009 20.9787 87.492 20.9787ZM87.492 19.4326C87.9174 19.4326 88.3002 19.3333 88.6263 19.1631C88.9524 18.9787 89.2076 18.7376 89.4061 18.4539C89.6187 18.156 89.7605 17.8298 89.8598 17.4468C89.959 17.078 90.0015 16.695 90.0015 16.312C90.0015 15.9291 89.9448 15.5603 89.8598 15.1773C89.7605 14.7943 89.6046 14.4681 89.4061 14.1702C89.1934 13.8723 88.9382 13.6454 88.6263 13.461C88.3144 13.2766 87.9316 13.1915 87.492 13.1915C87.0667 13.1915 86.6839 13.2908 86.3578 13.461C86.0317 13.6454 85.7765 13.8865 85.578 14.1702C85.3654 14.4681 85.2236 14.7943 85.1243 15.1773C85.0251 15.5603 84.9826 15.9291 84.9826 16.312C84.9826 16.695 85.0393 17.078 85.1243 17.4468C85.2236 17.8156 85.3795 18.156 85.578 18.4539C85.7907 18.7518 86.0459 18.9929 86.3578 19.1631C86.6839 19.3475 87.0525 19.4326 87.492 19.4326ZM92.5252 11.8865H93.9997V9.21984H95.9421V11.8723H97.7001V13.3333H95.9421V18.0709C95.9421 18.2837 95.9563 18.4539 95.9705 18.6099C95.9846 18.7518 96.0272 18.8794 96.098 18.9929C96.1548 19.0922 96.254 19.1773 96.3816 19.2198C96.5092 19.2624 96.6793 19.2908 96.892 19.2908C97.0338 19.2908 97.1614 19.2908 97.3032 19.2766C97.445 19.2624 97.5726 19.2482 97.7143 19.2198V20.7234C97.5017 20.7518 97.289 20.7659 97.0905 20.7943C96.8778 20.8227 96.6793 20.8227 96.4667 20.8227C95.9563 20.8227 95.5309 20.7659 95.219 20.6808C94.9071 20.5815 94.6519 20.4397 94.4818 20.2553C94.2975 20.0709 94.184 19.8298 94.1131 19.5461C94.0564 19.2624 94.0139 18.9362 93.9997 18.5674V13.3475H92.5252V11.8865Z" fill="#191919"/>
<path d="M23.4079 8.51064H14.4758L11.7111 0L8.94644 8.51064L0.0143433 8.49646L7.24509 13.7589L4.46621 22.2553L11.697 17.0071L18.9277 22.2553L16.163 13.7589L23.4079 8.51064Z" fill="#04DA8D"/>
<path d="M16.8008 15.6881L16.177 13.759L11.7109 17.0073L16.8008 15.6881Z" fill="#005128"/>
</g>
</svg>
